General
Complete name                    : Far and Away.mkv
Format                           : Matroska
File size                        : 3.26 GiB
Duration                         : 2h 14mn
Overall bit rate                 : 3 475 Kbps


Video
ID                               : 1
Format                           : AVC

Duration                         : 2h 14mn
Bit rate                         : 2 756 Kbps
Nominal bit rate                 : 2 792 Kbps
Width                            : 718 pixels
Height                           : 434 pixels
Display aspect ratio             : 2.35
Frame rate                       : 25.000 fps
Resolution                       : 24 bits
Colorimetry                      : 4:2:0
Scan type                        : Progressive
Bits/(Pixel*Frame)               : 0.354
Stream size                      : 2.58 GiB (79%)
Writing library                  : x264 core 79


Audio #1
ID                               : 2
Format                           : AC-3
Format/Info                      : Audio Coding 3
Codec ID                         : A_AC3
Duration                         : 2h 14mn
Bit rate mode                    : Constant
Bit rate                         : 384 Kbps
Channel(s)                       : 6 channels
Channel positions                : Front: L C R, Surround: L R, LFE
Sampling rate                    : 48.0 KHz
Stream size                      : 368 MiB (11%)
Language                         : English

Audio #2
ID                               : 3
Format                           : MPEG Audio
Format version                   : Version 1
Format profile                   : Layer 3
Codec ID                         : A_MPEG/L3
Codec ID/Hint                    : MP3
Duration                         : 2h 14mn
Bit rate mode                    : Constant
Bit rate                         : 128 Kbps
Channel(s)                       : 2 channels
Sampling rate                    : 48.0 KHz
Resolution                       : 16 bits
Stream size                      : 123 MiB (4%)
Writing library                  : LAME3.98
Language                         : German

Audio #3
ID                               : 4
Format                           : MPEG Audio
Format version                   : Version 1
Format profile                   : Layer 3
Codec ID                         : A_MPEG/L3
Codec ID/Hint                    : MP3
Duration                         : 2h 14mn
Bit rate mode                    : Constant
Bit rate                         : 128 Kbps
Channel(s)                       : 2 channels
Sampling rate                    : 48.0 KHz
Resolution                       : 16 bits
Stream size                      : 123 MiB (4%)
Writing library                  : LAME3.98
Language                         : Spanish

Text #1
Language                         : English

Text #2
Language                         : French

Text #3
Language                         : Portuguese

Text #4
Language                         : Danish

Text #5
Language                         : Finnish

Text #6
Language                         : Swedish

Text #7
Language                         : Norwegian

Text #8
Language                         : German

Text #9
Language                         : Dutch
